<svg width="42" height="43" viewBox="0 0 42 43" fill="none" xmlns="http://www.w3.org/2000/svg">
<path d="M33.8124 29.246C33.737 29.6533 33.6465 29.8645 33.5409 29.8796C33.4654 29.8947 33.3221 29.9022 33.1109 29.9022C32.8243 29.9173 32.6508 29.8947 32.5905 29.8344C32.4849 29.7288 32.4774 29.4648 32.5679 29.0424C32.9601 27.3529 33.6992 25.7991 34.7854 24.3812C35.5094 23.4761 36.2486 22.7821 37.0029 22.2994C37.0481 22.2542 31.0971 22.2315 19.1498 22.2315C7.20255 22.2315 1.1912 22.2089 1.11577 22.1637C0.783901 21.9826 0.670764 21.7187 0.776359 21.3717C0.836698 21.1907 0.96492 21.0625 1.16102 20.987C1.25153 20.9569 7.25534 20.9418 19.1724 20.9418C31.0594 20.9116 37.0179 20.8965 37.0481 20.8965C37.0029 20.8814 36.8595 20.7834 36.6182 20.6024C35.9695 20.0744 35.3511 19.4559 34.7627 18.7469C33.6766 17.3591 32.945 15.8129 32.5679 14.1083C32.4774 13.6859 32.4849 13.4219 32.5905 13.3163C32.6508 13.256 32.8243 13.2334 33.1109 13.2485C33.4428 13.2485 33.6314 13.3013 33.6766 13.4069C33.7068 13.4672 33.752 13.6331 33.8124 13.9047C34.1593 15.3377 34.7627 16.635 35.6226 17.7966C36.045 18.3698 36.6785 19.0185 37.5233 19.7425C38.3379 20.3459 39.1977 20.8136 40.1028 21.1454C40.314 21.2359 40.4347 21.2963 40.4648 21.3265C40.6006 21.4622 40.5931 21.6357 40.4422 21.8469L40.0123 22.0505L39.967 22.0505C39.0016 22.4126 38.0814 22.9556 37.2065 23.6797C36.5729 24.1926 36.0299 24.7658 35.5773 25.3994C34.7175 26.5911 34.1292 27.8733 33.8124 29.246Z" fill="black"/>
</svg>
