<svg width="20" height="20" viewBox="0 0 20 20" fill="none" xmlns="http://www.w3.org/2000/svg">
<path d="M16.25 11.7625C15.166 11.6249 14.1035 11.3519 13.0875 10.95C12.3861 10.6738 11.7016 10.3565 11.0375 10C11.7056 9.64277 12.3943 9.32555 13.1 9.05001C14.1089 8.64188 15.1686 8.37275 16.25 8.25001C16.4989 8.21833 16.7385 8.13532 16.9537 8.00621C17.1689 7.87711 17.3549 7.70474 17.5 7.50001C17.7751 7.11213 17.8849 6.63083 17.8052 6.16199C17.7255 5.69315 17.4629 5.27517 17.075 5.00001C16.8829 4.86376 16.6659 4.76668 16.4363 4.7143C16.2067 4.66192 15.9691 4.65528 15.737 4.69474C15.2681 4.77445 14.8501 5.03713 14.575 5.42501C13.9409 6.32296 13.1786 7.12313 12.3125 7.80001C11.7208 8.25249 11.103 8.66987 10.4625 9.05001C10.4899 8.29654 10.5608 7.54529 10.675 6.80001C10.8462 5.75116 11.1443 4.727 11.5625 3.75001C11.6672 3.52044 11.7213 3.27107 11.7213 3.01876C11.7213 2.76645 11.6672 2.51708 11.5625 2.28751C11.3668 1.87891 11.0213 1.56135 10.5977 1.40075C10.174 1.24015 9.70485 1.24883 9.28747 1.42501C8.8753 1.62975 8.55956 1.98759 8.40774 2.42204C8.25591 2.8565 8.28004 3.33311 8.47497 3.75001C8.91401 4.75429 9.21265 5.81425 9.36247 6.90001C9.45185 7.64671 9.49776 8.39798 9.49997 9.15001C8.8594 8.76987 8.24167 8.35249 7.64997 7.90001C6.77989 7.19562 6.01026 6.37552 5.36247 5.46251C5.21379 5.26471 5.02618 5.09945 4.8112 4.97691C4.59622 4.85437 4.35843 4.77715 4.11247 4.75001C3.66365 4.73047 3.22431 4.88305 2.88422 5.17657C2.54413 5.4701 2.32896 5.88241 2.28268 6.32927C2.2364 6.77612 2.3625 7.22378 2.63522 7.58078C2.90793 7.93777 3.30668 8.17715 3.74997 8.25001C4.83187 8.37721 5.89153 8.65054 6.89997 9.06251C7.61047 9.33154 8.30348 9.64465 8.97497 10C8.30647 10.3527 7.61778 10.6658 6.91247 10.9375C5.8968 11.3432 4.8344 11.6203 3.74997 11.7625C3.50077 11.7881 3.26004 11.8672 3.04428 11.9945C2.82852 12.1218 2.64284 12.2942 2.49997 12.5C2.25006 12.869 2.14919 13.3189 2.21764 13.7592C2.2861 14.1995 2.51881 14.5976 2.86893 14.8732C3.21905 15.1489 3.66059 15.2817 4.10469 15.2449C4.54879 15.2081 4.96247 15.0045 5.26247 14.675L5.33747 14.5625C6.00534 13.6841 6.78244 12.8944 7.64997 12.2125C8.23741 11.7601 8.85097 11.3427 9.48747 10.9625C9.46685 11.7164 9.39586 12.4681 9.27497 13.2125C9.13709 14.2546 8.8683 15.2752 8.47497 16.25C8.32763 16.6703 8.34488 17.1308 8.52324 17.5389C8.7016 17.947 9.02785 18.2725 9.4364 18.4498C9.84494 18.6272 10.3055 18.6433 10.7254 18.4949C11.1453 18.3465 11.4935 18.0447 11.7 17.65C11.7928 17.4283 11.8406 17.1904 11.8406 16.95C11.8406 16.7097 11.7928 16.4717 11.7 16.25C11.2609 15.2466 10.9663 14.1861 10.825 13.1C10.6743 12.3576 10.5741 11.6059 10.525 10.85C11.1615 11.2302 11.775 11.6476 12.3625 12.1C13.2196 12.7758 13.9882 13.557 14.65 14.425C14.799 14.6235 14.9865 14.79 15.2013 14.9146C15.416 15.0392 15.6536 15.1192 15.9 15.15C16.3506 15.1742 16.7933 15.0246 17.1369 14.7321C17.4805 14.4396 17.6989 14.0265 17.7469 13.5778C17.795 13.1291 17.6692 12.6791 17.3953 12.3204C17.1215 11.9618 16.7205 11.7218 16.275 11.65L16.25 11.7625Z" fill="black"/>
</svg>
